<svg xmlns="http://www.w3.org/2000/svg" xmlns:xlink="http://www.w3.org/1999/xlink" width="500" zoomAndPan="magnify" viewBox="0 0 375 374.999991" height="500" preserveAspectRatio="xMidYMid meet" version="1.0"><defs><clipPath id="id1"><path d="M 142 124.527344 L 242.382812 124.527344 L 242.382812 274.527344 L 142 274.527344 Z M 142 124.527344 " clip-rule="nonzero"/></clipPath><clipPath id="id2"><path d="M 175 100.472656 L 233 100.472656 L 233 175.472656 L 175 175.472656 Z M 175 100.472656 " clip-rule="nonzero"/></clipPath><clipPath id="id3"><path d="M 133.472656 112.949219 L 178.472656 112.949219 L 178.472656 157.949219 L 133.472656 157.949219 Z M 133.472656 112.949219 " clip-rule="nonzero"/></clipPath><clipPath id="id4"><path d="M 132.804688 114.800781 L 177.804688 114.800781 L 177.804688 159.800781 L 132.804688 159.800781 Z M 132.804688 114.800781 " clip-rule="nonzero"/></clipPath><clipPath id="id5"><path d="M 147.949219 110.367188 L 174.949219 110.367188 L 174.949219 137.367188 L 147.949219 137.367188 Z M 147.949219 110.367188 " clip-rule="nonzero"/></clipPath></defs><g clip-path="url(#id1)"><path fill="#00c56a" d="M 192.128906 124.527344 C 164.460938 124.527344 142.035156 146.914062 142.035156 174.53125 C 142.035156 183.902344 144.617188 192.667969 149.113281 200.167969 L 192.125 274.535156 L 235.175781 200.113281 C 239.648438 192.628906 242.21875 183.878906 242.21875 174.53125 C 242.222656 146.914062 219.796875 124.527344 192.128906 124.527344 Z M 192.128906 191.261719 C 182.871094 191.261719 175.367188 183.769531 175.367188 174.527344 C 175.367188 165.289062 182.871094 157.796875 192.128906 157.796875 C 201.386719 157.796875 208.894531 165.289062 208.894531 174.527344 C 208.894531 183.769531 201.386719 191.261719 192.128906 191.261719 Z M 192.128906 191.261719 " fill-opacity="1" fill-rule="nonzero"/></g><g clip-path="url(#id2)"><path fill="#00c56a" d="M 224.6875 155.628906 C 224.6875 155.628906 233.832031 134.429688 196.296875 120.613281 C 174.894531 112.734375 175.332031 100.476562 175.332031 100.476562 C 175.332031 100.476562 170.964844 155.628906 207.652344 160.882812 C 207.652344 160.882812 217.597656 163.097656 222.773438 159.539062 C 222.773438 159.539062 227.945312 170.136719 227.25 175.246094 L 232.039062 175.476562 C 232.039062 175.476562 224.007812 154.351562 220.300781 151.875 Z M 224.6875 155.628906 " fill-opacity="1" fill-rule="nonzero"/></g><g clip-path="url(#id3)"><path fill="#ffffff" d="M 155.972656 112.949219 C 143.546875 112.949219 133.472656 123.019531 133.472656 135.449219 C 133.472656 147.875 143.546875 157.949219 155.972656 157.949219 C 168.398438 157.949219 178.472656 147.875 178.472656 135.449219 C 178.472656 123.019531 168.398438 112.949219 155.972656 112.949219 " fill-opacity="1" fill-rule="nonzero"/></g><g clip-path="url(#id4)"><path fill="#ffffff" d="M 155.304688 114.800781 C 142.878906 114.800781 132.804688 124.875 132.804688 137.300781 C 132.804688 149.730469 142.878906 159.800781 155.304688 159.800781 C 167.730469 159.800781 177.804688 149.730469 177.804688 137.300781 C 177.804688 124.875 167.730469 114.800781 155.304688 114.800781 " fill-opacity="1" fill-rule="nonzero"/></g><g clip-path="url(#id5)"><path fill="#ffffff" d="M 161.449219 110.367188 C 153.992188 110.367188 147.949219 116.410156 147.949219 123.867188 C 147.949219 131.324219 153.992188 137.367188 161.449219 137.367188 C 168.90625 137.367188 174.949219 131.324219 174.949219 123.867188 C 174.949219 116.410156 168.90625 110.367188 161.449219 110.367188 " fill-opacity="1" fill-rule="nonzero"/></g></svg>